<?xml version="1.0" encoding="utf-8"?>
<!-- Generator: Adobe Illustrator 19.0.0, SVG Export Plug-In . SVG Version: 6.00 Build 0)  -->
<svg version="1.1" id="Calque_1" xmlns="http://www.w3.org/2000/svg" xmlns:xlink="http://www.w3.org/1999/xlink" x="0px" y="0px"
	 viewBox="0 0 300 300" style="enable-background:new 0 0 300 300;" xml:space="preserve">
<style type="text/css">
	.st0{fill:#5A4495;}
</style>
<g id="XMLID_18_">
	<path id="XMLID_19_" class="st0" d="M145,273.8c-1.7-0.6-3.6-1.8-4.1-2.6c-0.5-0.8-0.9-7.7-0.9-15.5c0-7.7-0.4-15.2-1-16.6
		c-1.3-3.5-3.8-4.2-5.9-1.5c-1.5,1.9-1.8,4-1.8,15c0,7.5-0.4,13-1,13.4c-0.5,0.3-5-1.4-9.8-3.8l-8.9-4.5l-0.5-13.8
		c-0.6-15.2-1.4-17.5-6-16.4c-3,0.8-3.5,2.8-3.5,14.2c0,5.1-0.4,9.5-0.9,9.8c-1.2,0.7-20.3-8.7-21.9-10.7c-0.8-1.1-1.2-5.6-1.2-14.4
		v-12.8l-7.3-3.3c-4-1.8-7.9-3.3-8.6-3.3c-0.9,0-1.3,1.4-1.3,4.7c0,2.6-0.4,5-0.9,5.3c-1.5,0.9-35.3-15.5-39.2-19
		c-4.9-4.4-4.9-4.7-4.9-57.2c0-42.2,0.2-49.5,1.5-52.1c1.5-3.2,6.3-5.8,39.8-21.4c5-2.3,16.6-7.9,25.8-12.3c9.2-4.4,16.8-8,17-8
		c0.2,0,7.1-3.3,15.4-7.3c26.4-12.7,29.5-14,33.5-14.5c4.5-0.6,9.7,1.2,22.9,7.6c4.8,2.3,11.7,5.7,15.5,7.5c3.8,1.8,6.6,3.6,6.3,4.1
		c-0.3,0.5-0.1,0.6,0.5,0.3c0.6-0.4,5.5,1.5,10.9,4.1c9.3,4.4,16.6,7.9,36.2,17.2c30.1,14.2,38.9,18.7,41.1,20.9l2.5,2.5l0.3,50.5
		c0.2,35-0.1,51.2-0.8,53c-0.6,1.4-2.2,3.6-3.6,5c-4,3.8-37.9,20.3-39.6,19.3c-0.5-0.3-0.9-2.7-0.9-5.3c0-3.4-0.4-4.7-1.3-4.7
		c-0.7,0-4.6,1.5-8.6,3.3l-7.3,3.3v12.8c0,8.7-0.4,13.3-1.2,14.4c-1.5,2-20.7,11.4-21.9,10.7c-0.5-0.3-0.9-4.8-0.9-10
		c0-10.5-1.1-14.4-4.3-14.4c-3.9,0-4.4,1.6-4.4,15.5c0,15.3,0.7,14.1-11.1,19.8c-5.7,2.8-8.1,3.5-8.9,2.7c-0.7-0.7-1.1-5.6-1.1-13.1
		c0-12.4-1-16.3-4.3-16.3c-0.7,0-2,1-2.8,2.1c-1.2,1.7-1.5,5.1-1.5,17.1c0,16.4-0.3,17.2-5.7,19C150.6,275.3,149.1,275.3,145,273.8
		L145,273.8z M150.1,211.7c1.6,0,5.1,0.3,7.8,0.7c4.3,0.6,5.2,0.4,7-1.4c2.5-2.5,2-5.9-1.3-9.5c-2.8-3-10.5-6.9-13.8-6.8
		c-6.4,0.1-17.3,9.2-15.9,13.2c1.5,4.2,3.4,5.2,8.4,4.5C145,212,148.5,211.7,150.1,211.7L150.1,211.7z M102.4,191.7
		c0.2-4.9-0.2-9-0.8-10.2l-1.1-2.1l-4.6,2.7c-2.5,1.5-4.9,2.4-5.3,2.1c-0.4-0.4-0.4-0.1-0.1,0.5c0.4,0.7-0.1,1.4-1.2,1.7
		c-3.4,1.1-3.2,3.4,0.6,7c4.7,4.4,9,7.1,10.8,6.7C101.8,199.9,102.2,198,102.4,191.7L102.4,191.7z M207.2,195.4
		c3.6-2.7,6.6-5.3,6.6-5.7c0-1-6.7-6.1-10.8-8.2c-4.4-2.3-5.5-0.6-5.5,9.2C197.5,202.3,197.8,202.5,207.2,195.4L207.2,195.4z
		 M57.3,195.6c2.6-2.1,5.1-3.5,5.5-3.2c0.4,0.4,0.3-0.4-0.2-1.7c-1-2.7-12.3-11.8-13.7-10.9c-1,0.6-1.2,15.7-0.3,18.1
		C49.5,200.3,52.2,199.6,57.3,195.6L57.3,195.6z M251.6,197.8c0.3-0.8,0.6-5.2,0.6-9.6c0-7.2-0.2-8.1-1.8-8.1
		c-2.5,0-12.5,7.8-12.6,9.7c0,1.9,9.1,9.4,11.5,9.4C250.3,199.4,251.3,198.7,251.6,197.8L251.6,197.8z M83.9,182.2
		c5.3-2.3,12.4-8.8,15.6-14.2c1.3-2.3,2.9-3.8,3.4-3.5s0.8,0.2,0.4-0.4c-0.4-0.6,0.3-3.7,1.3-7c4.5-14,4.6-23.2,0.4-36.4
		c-4.8-15.2-15.6-24.9-28-24.9c-17-0.1-32.1,18.7-33.5,41.6c-1.4,23.3,7.2,40.2,23.6,46.2C71.4,185.3,78.2,184.7,83.9,182.2
		L83.9,182.2z M238.6,180.9c6.5-3.9,12.6-11.9,15.5-20.2c3-8.6,3.7-23.6,1.4-32.2c-2.5-9.4-6.7-17.4-12.1-23.1
		c-13.7-14.3-32-12.6-43.1,4.1c-12.3,18.3-10.2,47.5,4.4,63.8C215.3,185,227.2,187.7,238.6,180.9L238.6,180.9z M119.9,148.4
		c5.5-3.8,7.4-6.5,6.2-8.5c-1.4-2.2-11.2-8.7-12.7-8.4c-1.4,0.3-1.7,1.7-1.9,9.3c-0.3,8.1,0.5,11.6,2.4,11.6
		C114.1,152.4,116.8,150.6,119.9,148.4L119.9,148.4z M188.3,149.3c0.8-2.8,0.8-14.5,0-16.5c-0.9-2.4-3.4-1.7-9,2.6
		c-7.1,5.5-7.2,7.1-0.4,12.1C185.2,151.9,187.5,152.4,188.3,149.3L188.3,149.3z M38.2,140.1c0.4-12.1-0.4-12.8-7.9-7
		c-7.5,5.8-7.8,6.4-5.7,8.8c3,3.4,10.4,8.5,11.9,8.2C37.6,150,38,148,38.2,140.1L38.2,140.1z M269.3,147.2c2.4-1.8,5.3-4.2,6.3-5.3
		c1.8-2,1.8-2.1-0.4-4.4c-4.1-4.3-9.3-7.4-11.5-6.8c-1.8,0.6-2,1.4-2,9.5C261.8,152,262.2,152.4,269.3,147.2L269.3,147.2z
		 M55.2,97.1c6.8-4.5,6.9-6.4,0.3-11.3c-6.1-4.6-7.6-4.7-8.6-1c-0.8,2.6-0.2,13.4,0.8,15.1C48.4,101.2,49.8,100.7,55.2,97.1
		L55.2,97.1z M102.4,92.7c0.3-9-0.8-11.7-4.4-10.8c-3.9,1-10.8,6.2-10.8,8.2c0,2.1,11.1,10.8,13.3,10.4
		C101.8,100.2,102.2,98.6,102.4,92.7L102.4,92.7z M206.2,96.7c6.7-5,7.8-7.2,4.7-9.6c-1.3-1-4.2-2.8-6.4-4c-5.4-2.9-6.4-1.8-6.8,7.4
		C197.1,102.1,198.1,102.8,206.2,96.7L206.2,96.7z M253,91.6c0.2-4.8-0.2-8.9-0.7-9.5c-1.6-1.6-14,7.8-13.2,10.1
		c0.6,1.8,10.6,8.5,12.2,8.2C252.3,100.2,252.7,98.2,253,91.6L253,91.6z"/>
</g>
</svg>
